# This file uses centimeters as units for non-parametric coordinates.

g default
v 0.478430 0.843279 0.101769
v 0.534033 0.843279 -0.000000
v 0.534033 1.626420 -0.000000
v 0.478430 1.626420 0.101769
v 0.487864 0.843279 0.217211
v 0.487864 1.626420 0.217211
v 0.395653 0.843279 0.287716
v 0.395653 1.626420 0.287716
v 0.357338 0.843279 0.396864
v 0.357338 1.626420 0.396864
v 0.244403 0.843279 0.423931
v 0.244403 1.626420 0.423931
v 0.165025 0.843279 0.507896
v 0.165025 1.626420 0.507896
v 0.050818 0.843279 0.486860
v 0.050818 1.626420 0.486860
v -0.055822 0.843279 0.531108
v -0.055822 1.626420 0.531108
v -0.151639 0.843279 0.465610
v -0.151639 1.626420 0.465610
v -0.267017 0.843279 0.462486
v -0.267017 1.626420 0.462486
v -0.327958 0.843279 0.363841
v -0.327958 1.626420 0.363841
v -0.432042 0.843279 0.313897
v -0.432042 1.626420 0.313897
v -0.447638 0.843279 0.199144
v -0.447638 1.626420 0.199144
v -0.522364 0.843279 0.111032
v -0.522364 1.626420 0.111032
v -0.489974 0.843279 -0.000000
v -0.489974 1.626420 -0.000000
v -0.522364 0.843279 -0.111032
v -0.522364 1.626420 -0.111032
v -0.447638 0.843279 -0.199144
v -0.447638 1.626420 -0.199144
v -0.432042 0.843279 -0.313897
v -0.432042 1.626420 -0.313897
v -0.327958 0.843279 -0.363842
v -0.327958 1.626420 -0.363842
v -0.267017 0.843279 -0.462487
v -0.267017 1.626420 -0.462487
v -0.151639 0.843279 -0.465610
v -0.151639 1.626420 -0.465610
v -0.055822 0.843279 -0.531108
v -0.055822 1.626420 -0.531108
v 0.050818 0.843279 -0.486860
v 0.050818 1.626420 -0.486860
v 0.165026 0.843279 -0.507896
v 0.165026 1.626420 -0.507896
v 0.244403 0.843279 -0.423931
v 0.244403 1.626420 -0.423931
v 0.357338 0.843279 -0.396864
v 0.357338 1.626420 -0.396864
v 0.395654 0.843279 -0.287716
v 0.395654 1.626420 -0.287716
v 0.487864 0.843279 -0.217211
v 0.487864 1.626420 -0.217211
v 0.478430 0.843279 -0.101769
v 0.478430 1.626420 -0.101769
v -0.206868 0.843279 -0.455989
v -0.206868 1.626420 -0.455989
v -0.101270 0.843279 -0.490300
v -0.101270 1.626420 -0.490300
v -0.003545 0.843279 -0.500571
v -0.003545 1.626420 -0.500571
v 0.106879 0.843279 -0.488965
v 0.106879 1.626420 -0.488965
v 0.200333 0.843279 -0.458600
v 0.200333 1.626420 -0.458600
v 0.296489 0.843279 -0.403084
v 0.296489 1.626420 -0.403084
v 0.369514 0.843279 -0.337332
v 0.369514 1.626420 -0.337332
v 0.434776 0.843279 -0.247506
v 0.434776 1.626420 -0.247506
v 0.474744 0.843279 -0.157737
v 0.474744 1.626420 -0.157737
v 0.497829 0.843279 -0.049132
v 0.497829 1.626420 -0.049132
v 0.497828 0.843279 0.049132
v 0.497828 1.626420 0.049132
v 0.474744 0.843279 0.157737
v 0.474744 1.626420 0.157737
v 0.434776 0.843279 0.247506
v 0.434776 1.626420 0.247506
v 0.369513 0.843279 0.337332
v 0.369513 1.626420 0.337332
v 0.296489 0.843279 0.403083
v 0.296489 1.626420 0.403083
v 0.200333 0.843279 0.458599
v 0.200333 1.626420 0.458599
v 0.106878 0.843279 0.488965
v 0.106878 1.626420 0.488965
v -0.003545 0.843279 0.500571
v -0.003545 1.626420 0.500571
v -0.101271 0.843279 0.490299
v -0.101271 1.626420 0.490299
v -0.206868 0.843279 0.455989
v -0.206868 1.626420 0.455989
v -0.291967 0.843279 0.406857
v -0.291967 1.626420 0.406857
v -0.374480 0.843279 0.332562
v -0.374480 1.626420 0.332562
v -0.432238 0.843279 0.253065
v -0.432238 1.626420 0.253065
v -0.477398 0.843279 0.151632
v -0.477398 1.626420 0.151632
v -0.497829 0.843279 0.055516
v -0.497829 1.626420 0.055516
v -0.497829 0.843279 -0.055516
v -0.497829 1.626420 -0.055516
v -0.477398 0.843279 -0.151632
v -0.477398 1.626420 -0.151632
v -0.432238 0.843279 -0.253065
v -0.432238 1.626420 -0.253065
v -0.374480 0.843279 -0.332562
v -0.374480 1.626420 -0.332562
v -0.291967 0.843279 -0.406857
v -0.291967 1.626420 -0.406857
vt 0.562759 0.303284
vt 0.590565 0.303284
vt 0.590565 0.497189
vt 0.562759 0.497189
vt 0.534984 0.303284
vt 0.534984 0.497189
vt 0.507151 0.303284
vt 0.507151 0.497189
vt 0.479407 0.303284
vt 0.479407 0.497189
vt 0.451557 0.303284
vt 0.451557 0.497189
vt 0.423836 0.303284
vt 0.423836 0.497189
vt 0.395981 0.303284
vt 0.395981 0.497189
vt 0.368274 0.303284
vt 0.368274 0.497189
vt 0.340427 0.303284
vt 0.340427 0.497189
vt 0.312721 0.303284
vt 0.312721 0.497189
vt 0.284893 0.303284
vt 0.284893 0.497189
vt 0.257176 0.303284
vt 0.257176 0.497189
vt 0.229375 0.303284
vt 0.229375 0.497189
vt 0.201636 0.303284
vt 0.201636 0.497189
vt 0.173866 0.303284
vt 0.173866 0.497189
vt 0.146097 0.303284
vt 0.146097 0.497189
vt 0.118357 0.303284
vt 0.118357 0.497189
vt 0.090557 0.303284
vt 0.090557 0.497189
vt 0.062840 0.303284
vt 0.062840 0.497189
vt 0.035012 0.303284
vt 0.868409 0.303284
vt 0.868409 0.497189
vt 0.035012 0.497189
vt 0.840703 0.303284
vt 0.840703 0.497189
vt 0.812856 0.303284
vt 0.812856 0.497189
vt 0.785149 0.303284
vt 0.785149 0.497189
vt 0.757294 0.303284
vt 0.757294 0.497189
vt 0.729573 0.303284
vt 0.729573 0.497189
vt 0.701723 0.303284
vt 0.701723 0.497189
vt 0.673978 0.303284
vt 0.673978 0.497189
vt 0.646146 0.303284
vt 0.646146 0.497189
vt 0.618371 0.303284
vt 0.618371 0.497189
vt 0.576662 0.303284
vt 0.576662 0.497189
vt 0.548871 0.303284
vt 0.548871 0.497189
vt 0.521068 0.303284
vt 0.521068 0.497189
vt 0.493279 0.303284
vt 0.493279 0.497189
vt 0.465482 0.303284
vt 0.465482 0.497189
vt 0.437696 0.303284
vt 0.437696 0.497189
vt 0.409909 0.303284
vt 0.409909 0.497189
vt 0.382128 0.303284
vt 0.382128 0.497189
vt 0.354350 0.303284
vt 0.354350 0.497189
vt 0.326574 0.303284
vt 0.326574 0.497189
vt 0.298807 0.303284
vt 0.298807 0.497189
vt 0.271034 0.303284
vt 0.271034 0.497189
vt 0.243276 0.303284
vt 0.243276 0.497189
vt 0.215505 0.303284
vt 0.215505 0.497189
vt 0.187751 0.303284
vt 0.187751 0.497189
vt 0.159982 0.303284
vt 0.159982 0.497189
vt 0.132227 0.303284
vt 0.132227 0.497189
vt 0.104457 0.303284
vt 0.104457 0.497189
vt 0.076699 0.303284
vt 0.076699 0.497189
vt 0.048926 0.303284
vt 0.048926 0.497189
vt 0.854556 0.303284
vt 0.854556 0.497189
vt 0.826779 0.303284
vt 0.826779 0.497189
vt 0.799002 0.303284
vt 0.799002 0.497189
vt 0.771221 0.303284
vt 0.771221 0.497189
vt 0.743433 0.303284
vt 0.743433 0.497189
vt 0.715648 0.303284
vt 0.715648 0.497189
vt 0.687851 0.303284
vt 0.687851 0.497189
vt 0.660062 0.303284
vt 0.660062 0.497189
vt 0.632258 0.303284
vt 0.632258 0.497189
vt 0.604468 0.303284
vt 0.604468 0.497189
vn 0.978148 0.000000 0.207911
vn 0.877557 0.000000 0.479472
vn 0.877557 0.000000 0.479472
vn 0.978148 0.000000 0.207911
vn 0.805037 0.000000 0.593224
vn 0.805037 0.000000 0.593224
vn 0.976521 0.000000 -0.215423
vn 0.996678 0.000000 -0.081448
vn 0.996678 0.000000 -0.081448
vn 0.976521 0.000000 -0.215423
vn 0.809016 0.000000 0.587786
vn 0.607402 0.000000 0.794395
vn 0.607402 0.000000 0.794395
vn 0.809016 0.000000 0.587786
vn 0.495633 0.000000 0.868532
vn 0.495633 0.000000 0.868532
vn 0.979720 0.000000 0.200369
vn 0.943552 0.000000 0.331224
vn 0.943552 0.000000 0.331224
vn 0.979720 0.000000 0.200369
vn 0.500000 0.000000 0.866025
vn 0.233068 0.000000 0.972461
vn 0.233068 0.000000 0.972461
vn 0.500000 0.000000 0.866025
vn 0.101682 0.000000 0.994817
vn 0.101682 0.000000 0.994817
vn 0.812986 0.000000 0.582284
vn 0.726678 0.000000 0.686978
vn 0.726678 0.000000 0.686978
vn 0.812986 0.000000 0.582284
vn 0.104529 0.000000 0.994522
vn -0.181143 0.000000 0.983457
vn -0.181143 0.000000 0.983457
vn 0.104529 0.000000 0.994522
vn -0.309578 0.000000 0.950874
vn -0.309578 0.000000 0.950874
vn 0.504394 0.000000 0.863474
vn 0.383251 0.000000 0.923644
vn 0.383251 0.000000 0.923644
vn 0.504394 0.000000 0.863474
vn -0.309018 0.000000 0.951056
vn -0.564326 0.000000 0.825552
vn -0.564326 0.000000 0.825552
vn -0.309018 0.000000 0.951056
vn -0.668102 0.000000 0.744070
vn -0.668102 0.000000 0.744070
vn 0.107405 0.000000 0.994215
vn -0.027060 0.000000 0.999634
vn -0.027060 0.000000 0.999634
vn 0.107405 0.000000 0.994215
vn -0.669131 0.000000 0.743144
vn -0.850747 0.000000 0.525575
vn -0.850747 0.000000 0.525575
vn -0.669131 0.000000 0.743144
vn -0.912430 0.000000 0.409232
vn -0.912430 0.000000 0.409232
vn -0.308448 0.000000 0.951241
vn -0.432619 0.000000 0.901577
vn -0.432619 0.000000 0.901577
vn -0.308448 0.000000 0.951241
vn -0.913545 0.000000 0.406738
vn -0.990890 0.000000 0.134676
vn -0.990890 0.000000 0.134676
vn -0.913545 0.000000 0.406738
vn -0.999995 0.000000 0.003215
vn -0.999995 0.000000 0.003215
vn -0.670167 0.000000 0.742211
vn -0.762667 0.000000 0.646792
vn -0.762667 0.000000 0.646792
vn -0.670167 0.000000 0.742211
vn -1.000000 0.000000 0.000000
vn -0.959988 0.000000 -0.280040
vn -0.959988 0.000000 -0.280040
vn -1.000000 0.000000 0.000000
vn -0.914659 0.000000 -0.404227
vn -0.914659 0.000000 -0.404227
vn -0.914659 0.000000 0.404227
vn -0.959988 0.000000 0.280040
vn -0.959988 0.000000 0.280040
vn -0.914659 0.000000 0.404227
vn -0.913545 0.000000 -0.406738
vn -0.762667 0.000000 -0.646792
vn -0.762667 0.000000 -0.646792
vn -0.913545 0.000000 -0.406738
vn -0.670167 0.000000 -0.742211
vn -0.670167 0.000000 -0.742211
vn -0.999995 0.000000 -0.003215
vn -0.990890 0.000000 -0.134676
vn -0.990890 0.000000 -0.134676
vn -0.999995 0.000000 -0.003215
vn -0.669131 0.000000 -0.743144
vn -0.432620 0.000000 -0.901577
vn -0.432620 0.000000 -0.901577
vn -0.669131 0.000000 -0.743144
vn -0.308449 0.000000 -0.951241
vn -0.308449 0.000000 -0.951241
vn -0.912430 0.000000 -0.409233
vn -0.850747 0.000000 -0.525575
vn -0.850747 0.000000 -0.525575
vn -0.912430 0.000000 -0.409233
vn -0.309017 0.000000 -0.951056
vn -0.027061 0.000000 -0.999634
vn -0.027061 0.000000 -0.999634
vn -0.309017 0.000000 -0.951056
vn 0.107404 0.000000 -0.994215
vn 0.107404 0.000000 -0.994215
vn -0.668101 0.000000 -0.744071
vn -0.564325 0.000000 -0.825553
vn -0.564325 0.000000 -0.825553
vn -0.668101 0.000000 -0.744071
vn 0.104530 0.000000 -0.994522
vn 0.383251 0.000000 -0.923644
vn 0.383251 0.000000 -0.923644
vn 0.104530 0.000000 -0.994522
vn 0.504394 0.000000 -0.863474
vn 0.504394 0.000000 -0.863474
vn -0.309580 0.000000 -0.950873
vn -0.181144 0.000000 -0.983457
vn -0.181144 0.000000 -0.983457
vn -0.309580 0.000000 -0.950873
vn 0.500000 0.000000 -0.866025
vn 0.726678 0.000000 -0.686978
vn 0.726678 0.000000 -0.686978
vn 0.500000 0.000000 -0.866025
vn 0.812986 0.000000 -0.582284
vn 0.812986 0.000000 -0.582284
vn 0.101682 0.000000 -0.994817
vn 0.233068 0.000000 -0.972461
vn 0.233068 0.000000 -0.972461
vn 0.101682 0.000000 -0.994817
vn 0.809017 0.000000 -0.587785
vn 0.943552 0.000000 -0.331225
vn 0.943552 0.000000 -0.331225
vn 0.809017 0.000000 -0.587785
vn 0.979720 0.000000 -0.200371
vn 0.979720 0.000000 -0.200371
vn 0.495635 0.000000 -0.868531
vn 0.607404 0.000000 -0.794393
vn 0.607404 0.000000 -0.794393
vn 0.495635 0.000000 -0.868531
vn 0.978148 0.000000 -0.207910
vn 0.996678 0.000000 0.081448
vn 0.996678 0.000000 0.081448
vn 0.978148 0.000000 -0.207910
vn 0.976521 0.000000 0.215422
vn 0.976521 0.000000 0.215422
vn 0.805038 0.000000 -0.593223
vn 0.805038 0.000000 -0.593223
vn 0.877558 0.000000 -0.479470
vn 0.877558 0.000000 -0.479470
s 1
g podium_middle group1
f 1/1/1 81/63/2 82/64/3 4/4/4
f 81/63/2 2/2/5 3/3/6 82/64/3
f 5/5/7 83/65/8 84/66/9 6/6/10
f 83/65/8 1/1/1 4/4/4 84/66/9
s 2
f 7/7/11 85/67/12 86/68/13 8/8/14
f 85/67/12 5/5/15 6/6/16 86/68/13
f 9/9/17 87/69/18 88/70/19 10/10/20
f 87/69/18 7/7/11 8/8/14 88/70/19
s 3
f 11/11/21 89/71/22 90/72/23 12/12/24
f 89/71/22 9/9/25 10/10/26 90/72/23
f 13/13/27 91/73/28 92/74/29 14/14/30
f 91/73/28 11/11/21 12/12/24 92/74/29
s 4
f 15/15/31 93/75/32 94/76/33 16/16/34
f 93/75/32 13/13/35 14/14/36 94/76/33
f 17/17/37 95/77/38 96/78/39 18/18/40
f 95/77/38 15/15/31 16/16/34 96/78/39
s 5
f 19/19/41 97/79/42 98/80/43 20/20/44
f 97/79/42 17/17/45 18/18/46 98/80/43
f 21/21/47 99/81/48 100/82/49 22/22/50
f 99/81/48 19/19/41 20/20/44 100/82/49
s 6
f 23/23/51 101/83/52 102/84/53 24/24/54
f 101/83/52 21/21/55 22/22/56 102/84/53
f 25/25/57 103/85/58 104/86/59 26/26/60
f 103/85/58 23/23/51 24/24/54 104/86/59
s 7
f 27/27/61 105/87/62 106/88/63 28/28/64
f 105/87/62 25/25/65 26/26/66 106/88/63
f 29/29/67 107/89/68 108/90/69 30/30/70
f 107/89/68 27/27/61 28/28/64 108/90/69
s 8
f 31/31/71 109/91/72 110/92/73 32/32/74
f 109/91/72 29/29/75 30/30/76 110/92/73
f 33/33/77 111/93/78 112/94/79 34/34/80
f 111/93/78 31/31/71 32/32/74 112/94/79
s 9
f 35/35/81 113/95/82 114/96/83 36/36/84
f 113/95/82 33/33/85 34/34/86 114/96/83
f 37/37/87 115/97/88 116/98/89 38/38/90
f 115/97/88 35/35/81 36/36/84 116/98/89
s 10
f 39/39/91 117/99/92 118/100/93 40/40/94
f 117/99/92 37/37/95 38/38/96 118/100/93
f 41/41/97 119/101/98 120/102/99 42/44/100
f 119/101/98 39/39/91 40/40/94 120/102/99
s 11
f 43/45/101 61/103/102 62/104/103 44/46/104
f 61/103/102 41/42/105 42/43/106 62/104/103
f 45/47/107 63/105/108 64/106/109 46/48/110
f 63/105/108 43/45/101 44/46/104 64/106/109
s 12
f 47/49/111 65/107/112 66/108/113 48/50/114
f 65/107/112 45/47/115 46/48/116 66/108/113
f 49/51/117 67/109/118 68/110/119 50/52/120
f 67/109/118 47/49/111 48/50/114 68/110/119
s 13
f 51/53/121 69/111/122 70/112/123 52/54/124
f 69/111/122 49/51/125 50/52/126 70/112/123
f 53/55/127 71/113/128 72/114/129 54/56/130
f 71/113/128 51/53/121 52/54/124 72/114/129
s 14
f 55/57/131 73/115/132 74/116/133 56/58/134
f 73/115/132 53/55/135 54/56/136 74/116/133
f 57/59/137 75/117/138 76/118/139 58/60/140
f 75/117/138 55/57/131 56/58/134 76/118/139
s 15
f 59/61/141 77/119/142 78/120/143 60/62/144
f 77/119/142 57/59/145 58/60/146 78/120/143
f 3/3/147 2/2/148 79/121/149 80/122/150
f 79/121/149 59/61/141 60/62/144 80/122/150
